<svg id="Layer_2" data-name="Layer 2" xmlns="http://www.w3.org/2000/svg" width="30" height="30" viewBox="0 0 30 30">
  <g id="invisible_box" data-name="invisible box">
    <rect id="Rectangle_227" data-name="Rectangle 227" width="30" height="30" fill="none"/>
  </g>
  <g id="Health_Icons" data-name="Health Icons" transform="translate(2.505 2.505)">
    <g id="Group_370" data-name="Group 370">
      <path id="Path_193" data-name="Path 193" d="M4,15.272H15.272V4H4ZM6.5,6.5h6.262v6.262H6.5Z" transform="translate(-4 -4)" fill="#fff"/>
      <path id="Path_194" data-name="Path 194" d="M4,37.272H15.272V26H4ZM6.5,28.5h6.262v6.262H6.5Z" transform="translate(-4 -12.223)" fill="#fff"/>
      <path id="Path_195" data-name="Path 195" d="M26,4V15.272H37.272V4Zm8.767,8.767H28.5V6.5h6.262Z" transform="translate(-12.223 -4)" fill="#fff"/>
      <rect id="Rectangle_228" data-name="Rectangle 228" width="2" height="2" transform="translate(4.495 4.495)" fill="#fff"/>
      <path id="Path_196" data-name="Path 196" d="M28.5,33H26v6.889H37.272v-2.5H28.5Z" transform="translate(-12.223 -14.839)" fill="#fff"/>
      <path id="Path_197" data-name="Path 197" d="M37.384,30.384H33v2.5h6.889V26h-2.5Z" transform="translate(-14.839 -12.223)" fill="#fff"/>
      <rect id="Rectangle_229" data-name="Rectangle 229" width="7" height="3" transform="translate(13.495 13.495)" fill="#fff"/>
    </g>
  </g>
</svg>
